<svg id="Layer_1" data-name="Layer 1" xmlns="http://www.w3.org/2000/svg" xmlns:xlink="http://www.w3.org/1999/xlink" viewBox="0 0 227.31 175.17"><defs><style>.cls-1{fill:url(#linear-gradient);}.cls-2,.cls-3{fill:#231f20;}.cls-3{stroke:#ab218b;stroke-miterlimit:10;}.cls-4{fill:#f1f2f2;}</style><linearGradient id="linear-gradient" x1="113.7" y1="59.24" x2="113.7" y2="128.37" gradientUnits="userSpaceOnUse"><stop offset="0.08" stop-color="#ec008c"/><stop offset="0.22" stop-color="#eb048d"/><stop offset="0.37" stop-color="#e81290"/><stop offset="0.53" stop-color="#e32894"/><stop offset="0.69" stop-color="#dc469b"/><stop offset="0.86" stop-color="#d26ea3"/><stop offset="1" stop-color="#c996ac"/></linearGradient></defs><rect class="cls-1" x="1.55" y="59.24" width="224.3" height="69.13" rx="9.63"/><path class="cls-2" d="M216.77,127.47h-204c-.32,0-.65,0-1,0a8.8,8.8,0,0,1-7.54-4.41C2.47,120,3,116,3,112.58V77c0-2.87-.1-5.75,0-8.61a8.28,8.28,0,0,1,8.3-8.23h194c3.45,0,6.91,0,10.37,0a8.83,8.83,0,0,1,7.8,4.93,11.05,11.05,0,0,1,1,5.1v46.64c0,.81,0,1.63,0,2.44-.16,4.16-3.25,8.14-7.62,8.22-.62,0-1.61.18-1.91.83s.23,1,.82,1c4.45-.07,8.84-2.36,10.71-6.55a12.54,12.54,0,0,0,.92-5.27v-47a20.3,20.3,0,0,0-.19-3.82,10.44,10.44,0,0,0-8.66-8.13,23.94,23.94,0,0,0-3.88-.15H12.31c-4.85,0-9.58,2.27-11.47,7C-.4,68.39.1,72.31.1,75.55v41.77a17,17,0,0,0,.29,4.16c1.25,5,5.87,7.79,10.78,7.79H215.68c.62,0,1.62-.18,1.91-.82S217.35,127.47,216.77,127.47Z"/><path class="cls-2" d="M8.3,50.76V.5H48.42V35.29H30.18V50.76Zm18.24-3.87V31.43H44.77V4.37H12V46.89Zm0-23.19V12.1h3.64V23.7Z"/><path class="cls-2" d="M52.06,50.76V31.43h7.3V19.83h-7.3V.5H88.53V19.83h-7.3v11.6h7.3V50.76Zm32.82-3.87V35.29H77.59V16h7.29V4.37H55.71V16H63V35.29H55.71v11.6Z"/><path class="cls-3" d="M92.17,50.76V.5h40.12V50.76Zm36.47-3.87V27.56h-7.29V23.7h7.29V4.37H114.05V12.1h-3.64V4.37H95.82V23.7h7.29v3.86H95.82V46.89h14.59V39.16h3.64v7.73Z"/><path class="cls-2" d="M135.93,50.76V.5h40.12V50.76Zm36.47-3.87V35.29H157.81V31.43H172.4V19.83H157.81V16H172.4V4.37H139.58V46.89Z"/><path class="cls-2" d="M179.69,50.76V.5h21.88V31.43H219.8V50.76Zm36.47-3.87V35.29H197.92V4.37H183.34V46.89Z"/><path class="cls-2" d="M5.9,174.67V136.86H36.28v37.81Zm27.62-2.91V151.4H22.47v-2.91H33.52v-8.72H8.66v20.36H19.71V163h-11v8.72Z"/><path class="cls-2" d="M44.57,174.67V151.4H39V136.86H66.66V151.4H61.14v23.27Zm13.81-2.91V148.49H63.9v-8.72H41.81v8.72h5.52v23.27Z"/><path class="cls-2" d="M69.42,174.67V136.86H99.8v37.81ZM97,171.76v-32H86v20.36H83.23V139.77h-11v32Z"/><path class="cls-3" d="M102.56,174.67V136.86h24.86v2.91H105.33v32h22.09v2.91ZM116.37,163V148.49h2.76V163Zm11-20.36v-2.91h2.76v2.91Zm0,29.08v-2.91h2.76v2.91Zm2.76-2.91V142.68h2.76v26.17Z"/><path class="cls-2" d="M135.71,174.67V136.86h16.57v37.81Zm13.8-2.91v-32h-11v32Z"/><path class="cls-2" d="M155,174.67V136.86h30.38v37.81Zm27.61-2.91v-32H157.8v32ZM168.85,163V148.49h2.76V163Z"/><path class="cls-2" d="M188.18,174.67V136.86h30.38v37.81Zm27.62-2.91V151.4H204.75v-2.91H215.8v-8.72H190.94v20.36H202V163H190.94v8.72Z"/><path class="cls-4" d="M72.18,101.38H79v4.18H75.6v4.17H61.9v-4.17H58.48V84.69H61.9V80.51H75.6v4.18H79v4.17H72.18V84.69H65.33v20.87h6.85Z"/><path class="cls-4" d="M99.58,97.21H103v12.52H96.15V97.21H89.3v12.52H82.45V80.51H99.58v4.18H103V93H99.58ZM96.15,84.69H89.3V93h6.85Z"/><path class="cls-4" d="M113.28,101.38v8.35h-6.85v-25h3.42V80.51h13.71v4.18H127v25h-6.85v-8.35Zm6.85-4.17V84.69h-6.85V97.21Z"/><path class="cls-4" d="M147.53,80.51v4.18H137.26V93h10.27v4.17H137.26v12.52h-6.85V80.51Z"/><path class="cls-4" d="M171.51,80.51v4.18h-6.85v25h-6.85v-25H151V80.51Z"/></svg>