<svg id="Layer_1" data-name="Layer 1" xmlns="http://www.w3.org/2000/svg" viewBox="0 0 49.43 49.43"><defs><style>.cls-1{fill:#f1f2f2;}.cls-2,.cls-3{fill:none;}.cls-2{stroke:#ab218b;stroke-width:6px;}.cls-2,.cls-3,.cls-6{stroke-miterlimit:10;}.cls-3,.cls-6{stroke:#231f20;}.cls-3{stroke-width:4px;}.cls-4,.cls-6{fill:#fff;}.cls-5{fill:#231f20;}.cls-6{stroke-width:0.5px;}</style></defs><circle class="cls-1" cx="24.72" cy="24.72" r="21.72"/><circle class="cls-2" cx="24.72" cy="24.72" r="21.72"/><circle class="cls-3" cx="24.72" cy="24.72" r="21.72"/><rect class="cls-4" x="19.35" y="13.67" width="15.92" height="20.1" rx="4.21"/><path class="cls-5" d="M31.36,33.39H26.15c-.74,0-1.49,0-2.24,0a3.92,3.92,0,0,1-3.48-2.33c-.61-1.36-.36-3.21-.36-4.66V19.66c0-1.91-.15-4,1.73-5.18a4.4,4.4,0,0,1,2.53-.43h3.18c2,0,4.42-.41,5.95,1.21,1.31,1.4,1.09,3.27,1.09,5V27.7c0,.67,0,1.33,0,2a3.56,3.56,0,0,1-3.19,3.69c-.5,0-1.55.79-.58.76a5.08,5.08,0,0,0,5.22-5c0-2.13,0-4.25,0-6.37,0-1.68,0-3.37,0-5.05a4.47,4.47,0,0,0-2.66-4,6.85,6.85,0,0,0-2.84-.4c-2.16,0-4.33,0-6.49,0-2.8,0-5.32,1.86-5.38,4.81-.08,3.84-.08,7.71,0,11.55a4.44,4.44,0,0,0,2.07,3.78,6,6,0,0,0,3.3.72h6.78C31.28,34.15,32.33,33.39,31.36,33.39Z"/><rect class="cls-4" x="16.32" y="15.21" width="15.92" height="20.1" rx="4.21"/><path class="cls-5" d="M28.32,34.93h-5.2c-.75,0-1.5,0-2.25,0a3.91,3.91,0,0,1-3.47-2.32c-.61-1.37-.36-3.22-.36-4.67V21.2c0-1.91-.15-4,1.73-5.18a4.4,4.4,0,0,1,2.53-.43h3.18c2,0,4.42-.4,5.94,1.22,1.32,1.39,1.1,3.26,1.1,5v7.42c0,.67,0,1.34,0,2a3.57,3.57,0,0,1-3.2,3.69c-.49,0-1.54.79-.58.76a5.06,5.06,0,0,0,5.22-5c0-2.12,0-4.25,0-6.37,0-1.68,0-3.37,0-5.05a4.43,4.43,0,0,0-2.65-4,6.7,6.7,0,0,0-2.84-.41c-2.17,0-4.33,0-6.49,0-2.8,0-5.33,1.86-5.39,4.81-.08,3.84-.08,7.71,0,11.55A4.48,4.48,0,0,0,17.67,35a5.89,5.89,0,0,0,3.29.71h6.78C28.25,35.69,29.3,34.93,28.32,34.93Z"/><rect class="cls-4" x="13.44" y="17.12" width="15.92" height="20.1" rx="4.21"/><path class="cls-5" d="M25.45,36.84h-5.2c-.75,0-1.5,0-2.25,0a3.9,3.9,0,0,1-3.47-2.32c-.62-1.37-.36-3.22-.36-4.67V23.11c0-1.91-.16-4,1.72-5.18a4.42,4.42,0,0,1,2.53-.43h3.19c2,0,4.41-.4,5.94,1.22,1.31,1.39,1.09,3.26,1.09,5v7.42c0,.67,0,1.34,0,2a3.56,3.56,0,0,1-3.19,3.69c-.5,0-1.55.79-.58.76a5.08,5.08,0,0,0,5.22-5.05c0-2.12,0-4.25,0-6.37,0-1.68.05-3.37,0-5.05a4.46,4.46,0,0,0-2.65-4,6.75,6.75,0,0,0-2.85-.41c-2.16,0-4.33,0-6.49,0-2.8,0-5.32,1.86-5.38,4.81-.08,3.84-.08,7.71,0,11.55a4.46,4.46,0,0,0,2.08,3.79,5.89,5.89,0,0,0,3.29.71h6.78C25.37,37.6,26.42,36.84,25.45,36.84Z"/><line class="cls-6" x1="15.71" y1="32.32" x2="26.51" y2="32.32"/><line class="cls-6" x1="15.71" y1="34.37" x2="26.51" y2="34.37"/><line class="cls-6" x1="15.71" y1="26.31" x2="26.51" y2="26.31"/><line class="cls-6" x1="22.12" y1="20.76" x2="26.44" y2="20.76"/><line class="cls-6" x1="22.12" y1="22.29" x2="26.44" y2="22.29"/><line class="cls-6" x1="22.12" y1="24.04" x2="26.44" y2="24.04"/><line class="cls-6" x1="15.71" y1="28.25" x2="26.51" y2="28.25"/><line class="cls-6" x1="15.71" y1="30.45" x2="26.51" y2="30.45"/><rect class="cls-6" x="15.52" y="19.89" width="5.12" height="4.79" rx="1.22"/></svg>