<svg id="Layer_1" data-name="Layer 1" xmlns="http://www.w3.org/2000/svg" viewBox="0 0 49.43 49.43"><defs><style>.cls-1{fill:#f1f2f2;}.cls-2,.cls-3{fill:none;stroke-miterlimit:10;}.cls-2{stroke:#ab218b;stroke-width:6px;}.cls-3{stroke:#231f20;stroke-width:4px;}.cls-4{fill:#fff;}.cls-5{fill:#231f20;}</style></defs><circle class="cls-1" cx="24.72" cy="24.72" r="21.72"/><circle class="cls-2" cx="24.72" cy="24.72" r="21.72"/><circle class="cls-3" cx="24.72" cy="24.72" r="21.72"/><path class="cls-4" d="M38.07,18.94c-1.07-1.6-3-1.07-4.37-.43a1,1,0,0,1-1.41-.88h0a1,1,0,0,0-1-1H16.25a1,1,0,0,0-1,1V33.72a1,1,0,0,0,.65.93,25.08,25.08,0,0,0,8,1.27,26.81,26.81,0,0,0,8.18-1.28,1,1,0,0,0,.67-.93v-1.9A.94.94,0,0,1,34,30.94C36.83,31.65,39.57,21.22,38.07,18.94Zm-3.23,9.44c-.39.69-2.4-.09-2.35-4.11s3.86-4.45,4.11-3.47A14.53,14.53,0,0,1,34.84,28.38Z"/><path class="cls-5" d="M38.66,18.8c-1.1-1.46-3-1.37-4.54-.81-.71.25-.95.51-1.21-.43a1.47,1.47,0,0,0-.32-.77,1.68,1.68,0,0,0-1.22-.43c-2.1-.11-4.23,0-6.33,0H17.19a3.29,3.29,0,0,0-2,.34c-.66.47-.56,1.17-.56,1.87,0,5-.14,9.94,0,14.89,0,1.13.75,1.42,1.75,1.72a26.45,26.45,0,0,0,6.49,1A28.14,28.14,0,0,0,30,35.5c1.2-.27,3.23-.45,3.32-2,0-.6-.22-1.55.16-2s.41-.19.84-.23a2.43,2.43,0,0,0,.78-.2,5.48,5.48,0,0,0,2.39-3A19.09,19.09,0,0,0,39,22.92c.19-1.28.41-3-.3-4.12-.19-.32-1.4-.08-1.18.28a5.3,5.3,0,0,1,.34,3.08,18.48,18.48,0,0,1-1,4.47,10,10,0,0,1-1.77,3.46,1.54,1.54,0,0,1-.85.58c-.67.06-1.38-.1-1.88.52-.77.94.4,2.54-.8,3.3A7.46,7.46,0,0,1,29.5,35a26.5,26.5,0,0,1-3.54.52A24.51,24.51,0,0,1,18.47,35c-1-.22-2.49-.36-2.58-1.56-.14-1.88,0-3.82,0-5.7V20c0-.71-.06-1.46,0-2.17,0-.52.07-.81.57-.89a14.31,14.31,0,0,1,2.36,0H30.37a2.55,2.55,0,0,1,.73,0c.73.23.46,1.13.95,1.59a1.81,1.81,0,0,0,1.7.28c1.42-.37,2.6-1.22,3.73.28C37.71,19.39,38.9,19.12,38.66,18.8Z"/><path class="cls-5" d="M34.23,28.38c0,.05,0-.05,0,0s-.06,0,0,0c-.08,0,.11,0,0,0a2.32,2.32,0,0,1,.3-.05s.07,0,0,0a.56.56,0,0,1-.17-.09,2.43,2.43,0,0,1-.86-1.18,7.19,7.19,0,0,1-.44-2.52,5,5,0,0,1,.46-2.35A3.09,3.09,0,0,1,34.69,21,1.58,1.58,0,0,1,35,20.8l.16-.07.08,0c.1,0-.07,0,0,0l.16,0s-.09,0,0,0h.19c.12,0-.08,0,0,0l.12,0c-.08,0,.05,0,.05,0a.33.33,0,0,1,.17.18,4.09,4.09,0,0,1,0,1.56,14.82,14.82,0,0,1-1.77,5.95c-.18.32,1,.36,1.22,0a15.33,15.33,0,0,0,1.8-6.18,2.93,2.93,0,0,0-.11-1.66,1.54,1.54,0,0,0-1.28-.47A3.93,3.93,0,0,0,32.45,22a5.22,5.22,0,0,0-.58,2.75,6.58,6.58,0,0,0,.59,2.8,2.32,2.32,0,0,0,1.3,1.27,1.52,1.52,0,0,0,1.69-.42c.13-.23-.36-.29-.47-.29S34.37,28.15,34.23,28.38Z"/><path d="M28.34,32.51H19.66V19.4h8.68Zm-4.16-8.86-.05,0a2.49,2.49,0,0,0-.57.41.13.13,0,0,1-.11,0,1.55,1.55,0,0,0-.74-.07,4.92,4.92,0,0,0-1.57.56,2,2,0,0,0-1,1.49c-.05.28-.08.56-.11.84a2,2,0,0,0,.3,1.54c.15.18.31.35.47.53A.52.52,0,0,0,21,29a5.41,5.41,0,0,1-.33-.69A4.52,4.52,0,0,1,20.5,27a1,1,0,0,1,.05-.38,2.21,2.21,0,0,1,.87-1.23,4.31,4.31,0,0,1,1.07-.49,1.43,1.43,0,0,1,.3,0l-.16.35a4.17,4.17,0,0,1-.33.63,5.79,5.79,0,0,0-.49,1,5.33,5.33,0,0,1-.32.63.77.77,0,0,0-.08.53,1,1,0,0,0,.07.15l.26-.23.14-.13s.05-.07.09-.09a.42.42,0,0,0,.21-.24l.09-.24.09-.15.13-.3a.2.2,0,0,0,0-.08.25.25,0,0,1,.11-.25.11.11,0,0,0,0-.06c0-.08,0-.17,0-.24l-.08,0c0-.05,0-.11,0-.18l.13.09c-.05-.16,0-.19.13-.19a.27.27,0,0,0,.27-.15.21.21,0,0,1,.23-.13s.07,0,.1,0l.28,0a2,2,0,0,0,.64.05c.07,0,.14,0,.2-.06l.09,0a.86.86,0,0,0,.52-.06.13.13,0,0,1,.09,0c.09,0,.15,0,.14-.15.08.06.13.14.19.15.25,0,.34.28.49.43a1,1,0,0,0,.34.3l.17.08a.56.56,0,0,0,.21.17.21.21,0,0,1,.14.18.79.79,0,0,0,.1.21l0-.05.05,0a1.83,1.83,0,0,1,.07,1l-.28.06s0,0-.06,0a.54.54,0,0,1-.13.07l-.55.1s-.11,0-.11.06a.26.26,0,0,0,.07.15s.09,0,.14.06a2,2,0,0,1,.32.17.9.9,0,0,1,.2.19s0,.09.06.1.07,0,.13,0c-.09.2,0,.39-.06.58a.16.16,0,0,0,0,.12c0,.07,0,.12,0,.14a1.14,1.14,0,0,1-.26.09,1,1,0,0,0-.48.27c.19.07.38.08.52.24l.12-.18c.21.13.17.34.15.55l.13-.05-.1.27a.5.5,0,0,0,.3-.23,1,1,0,0,0,0-1.07.2.2,0,0,1,0-.24,1,1,0,0,0,.08-.86c-.06-.16-.09-.32-.14-.48a.89.89,0,0,0,.22-.16,1.17,1.17,0,0,0,.22-1,5.25,5.25,0,0,0-.22-.55,1.11,1.11,0,0,0-.41-.5.16.16,0,0,1-.08-.16A4.25,4.25,0,0,0,26.82,24c-.09-.35-.2-.69-.29-1a2.12,2.12,0,0,1,0-.44,7.69,7.69,0,0,0,0-.83,3.77,3.77,0,0,0-.66-1.47,1.64,1.64,0,0,0-.41-.42.52.52,0,0,0-.54-.05.56.56,0,0,1,.24.24,1,1,0,0,0,.3.44.3.3,0,0,1,.08.08,1.72,1.72,0,0,0,.07.21s0,.05,0,.07a2.56,2.56,0,0,0,0,.39,2.23,2.23,0,0,0,.13.44c0,.1,0,.25.12.33v0a2.41,2.41,0,0,0,0,.38.21.21,0,0,1-.07.24c-.07.06-.07.11,0,.19a.36.36,0,0,1,.06.36s0,.05-.06.05-.07.06-.08.12-.05.27-.08.4a2,2,0,0,0-.08.33,4.54,4.54,0,0,0,.09.51c0,.14,0,.28,0,.42s0,.05,0,.06-.05,0-.07,0l-.08-.12s0-.06,0-.05-.08-.05-.1-.1-.12-.35-.33-.42c0,0,0,0-.05-.05a.61.61,0,0,0-.35-.19.63.63,0,0,0-.43,0,2.07,2.07,0,0,0-.32.28c-.1-.12-.1-.16,0-.37s.1-.22.24-.24S24.16,23.69,24.18,23.65Zm-2,5,0,0-.37-.32a.19.19,0,0,0-.08.22c0,.16,0,.32,0,.48s0,.12-.13.07L21.32,29a1.42,1.42,0,0,0-.22,0,.59.59,0,0,0,.25.46c.14.09.25.22.44.18L22,30l.43-.31-.14-.05a1,1,0,0,0,.15-.13.15.15,0,0,0,0-.11c0-.13-.09-.26-.13-.38Zm4.11,3.07c.35-.07.48-.58.37-.86-.34.14-.73.1-1,.4a1,1,0,0,0,.22.14,1.06,1.06,0,0,0,.31,0l.13-.13C26.32,31.42,26.39,31.55,26.27,31.69Zm-4.13-1.44.07.35h-.1l.07.24c.1,0,.08,0,.07.13a.86.86,0,0,0,.05.27,1.58,1.58,0,0,0,.09-.36s0-.09,0-.11-.05-.23-.05-.34S22.32,30.26,22.14,30.25Zm2.2-6.76a.82.82,0,0,0,.1-.17.27.27,0,0,1,.12-.17s.05-.11.08-.19A.54.54,0,0,0,24.34,23.49Zm1.74,8.3-.29.13C25.85,32,26,31.93,26.08,31.79Z"/><path class="cls-4" d="M24.18,23.65s0,.1-.07.11-.18.14-.24.24-.11.25,0,.37a2.07,2.07,0,0,1,.32-.28.63.63,0,0,1,.43,0,.61.61,0,0,1,.35.19s0,0,.05.05c.21.07.26.25.33.42s0,.12.1.1,0,0,0,.05l.08.12s.05,0,.07,0,0,0,0-.06,0-.28,0-.42a4.54,4.54,0,0,1-.09-.51,2,2,0,0,1,.08-.33c0-.13.06-.27.08-.4s0-.11.08-.12,0,0,.06-.05a.36.36,0,0,0-.06-.36c-.05-.08-.05-.13,0-.19a.21.21,0,0,0,.07-.24,2.41,2.41,0,0,1,0-.38v0c-.13-.08-.07-.23-.12-.33a2.23,2.23,0,0,1-.13-.44,2.56,2.56,0,0,1,0-.39s0-.05,0-.07a1.72,1.72,0,0,1-.07-.21.3.3,0,0,0-.08-.08,1,1,0,0,1-.3-.44.56.56,0,0,0-.24-.24.52.52,0,0,1,.54.05,1.64,1.64,0,0,1,.41.42,3.77,3.77,0,0,1,.66,1.47,7.69,7.69,0,0,1,0,.83,2.12,2.12,0,0,0,0,.44c.09.35.2.69.29,1A4.25,4.25,0,0,1,27,25.45a.16.16,0,0,0,.08.16,1.11,1.11,0,0,1,.41.5,5.25,5.25,0,0,1,.22.55,1.17,1.17,0,0,1-.22,1,.89.89,0,0,1-.22.16c.05.16.08.32.14.48a1,1,0,0,1-.08.86.2.2,0,0,0,0,.24,1,1,0,0,1,0,1.07.5.5,0,0,1-.3.23l.1-.27-.13.05c0-.21.06-.42-.15-.55l-.12.18c-.14-.16-.33-.17-.52-.24a1,1,0,0,1,.48-.27,1.14,1.14,0,0,0,.26-.09c.06,0,.09-.07,0-.14a.16.16,0,0,1,0-.12c.06-.19,0-.38.06-.58-.06,0-.11.07-.13,0s0-.07-.06-.1a.9.9,0,0,0-.2-.19,2,2,0,0,0-.32-.17c-.05,0-.11,0-.14-.06a.26.26,0,0,1-.07-.15s.07-.05.11-.06l.55-.1a.54.54,0,0,0,.13-.07s0,0,.06,0l.28-.06a1.83,1.83,0,0,0-.07-1l-.05,0,0,.05a.79.79,0,0,1-.1-.21.21.21,0,0,0-.14-.18.56.56,0,0,1-.21-.17l-.17-.08a1,1,0,0,1-.34-.3c-.15-.15-.24-.38-.49-.43-.06,0-.11-.09-.19-.15,0,.13-.05.16-.14.15a.13.13,0,0,0-.09,0,.86.86,0,0,1-.52.06l-.09,0c-.06,0-.13,0-.2.06a2,2,0,0,1-.64-.05l-.28,0s-.07,0-.1,0a.21.21,0,0,0-.23.13.27.27,0,0,1-.27.15c-.12,0-.18,0-.13.19l-.13-.09c0,.07,0,.13,0,.18l.08,0c0,.07,0,.16,0,.24a.11.11,0,0,1,0,.06.25.25,0,0,0-.11.25.2.2,0,0,1,0,.08l-.13.3-.09.15-.09.24a.42.42,0,0,1-.21.24s-.06.06-.09.09l-.14.13-.26.23a1,1,0,0,1-.07-.15.77.77,0,0,1,.08-.53,5.33,5.33,0,0,0,.32-.63,5.79,5.79,0,0,1,.49-1,4.17,4.17,0,0,0,.33-.63l.16-.35a1.43,1.43,0,0,0-.3,0,4.31,4.31,0,0,0-1.07.49,2.21,2.21,0,0,0-.87,1.23,1,1,0,0,0-.05.38,4.52,4.52,0,0,0,.13,1.32A5.41,5.41,0,0,0,21,29a.52.52,0,0,1-.13-.06c-.16-.18-.32-.35-.47-.53a2,2,0,0,1-.3-1.54c0-.28.06-.56.11-.84a2,2,0,0,1,1-1.49A4.92,4.92,0,0,1,22.71,24a1.55,1.55,0,0,1,.74.07.13.13,0,0,0,.11,0,2.49,2.49,0,0,1,.57-.41Zm1.58-.14a1.2,1.2,0,0,0,.13.57c.05.09.1,0,.12,0s0-.11,0-.17A.31.31,0,0,0,25.76,23.51Z"/><path class="cls-4" d="M22.16,28.62l.15.4c0,.12.09.25.13.38a.15.15,0,0,1,0,.11,1,1,0,0,1-.15.13l.14.05L22,30l-.18-.44c-.19,0-.3-.09-.44-.18a.59.59,0,0,1-.25-.46,1.42,1.42,0,0,1,.22,0l.27.14c.1.05.14,0,.13-.07s0-.32,0-.48a.19.19,0,0,1,.08-.22l.37.32Z"/><path class="cls-4" d="M26.27,31.69c.12-.14.05-.27,0-.43l-.13.13a1.06,1.06,0,0,1-.31,0,1,1,0,0,1-.22-.14c.29-.3.68-.26,1-.4C26.75,31.11,26.62,31.62,26.27,31.69Z"/><path class="cls-4" d="M22.14,30.25c.18,0,.18,0,.18.17s-.06.24.05.34,0,.08,0,.11a1.58,1.58,0,0,1-.09.36.86.86,0,0,1-.05-.27c0-.09,0-.14-.07-.13l-.07-.24h.1Z"/><path class="cls-4" d="M24.34,23.49a.54.54,0,0,1,.3-.53c0,.08,0,.16-.08.19a.27.27,0,0,0-.12.17A.82.82,0,0,1,24.34,23.49Z"/><path class="cls-4" d="M26.08,31.79c-.13.14-.23.18-.29.13Z"/><path d="M25.76,23.51a.31.31,0,0,1,.28.38c0,.06,0,.12,0,.17s-.07.11-.12,0A1.2,1.2,0,0,1,25.76,23.51Z"/></svg>