<?xml version="1.0" encoding="utf-8"?>
<!-- Generator: Adobe Illustrator 25.0.1, SVG Export Plug-In . SVG Version: 6.00 Build 0)  -->
<svg version="1.1" id="Layer_1" xmlns="http://www.w3.org/2000/svg" xmlns:xlink="http://www.w3.org/1999/xlink" x="0px" y="0px"
	 viewBox="0 0 97.3 75.6" style="enable-background:new 0 0 97.3 75.6;" xml:space="preserve">
<style type="text/css">
	.st0{fill:url(#SVGID_1_);}
	.st1{fill:#231F20;}
	.st2{fill:#231F20;stroke:#AB218B;stroke-miterlimit:10;}
	.st3{fill:#F1F2F2;}
</style>
<linearGradient id="SVGID_1_" gradientUnits="userSpaceOnUse" x1="48.6715" y1="150.2449" x2="48.6715" y2="120.6524" gradientTransform="matrix(1 0 0 -1 0 175.8898)">
	<stop  offset="8.000000e-02" style="stop-color:#EC008C"/>
	<stop  offset="0.22" style="stop-color:#EB048D"/>
	<stop  offset="0.37" style="stop-color:#E81290"/>
	<stop  offset="0.53" style="stop-color:#E32894"/>
	<stop  offset="0.69" style="stop-color:#DC469B"/>
	<stop  offset="0.86" style="stop-color:#D26EA3"/>
	<stop  offset="1" style="stop-color:#C996AC"/>
</linearGradient>
<path class="st0" d="M4.8,25.6h87.8c2.3,0,4.1,1.8,4.1,4.1v21.3c0,2.3-1.8,4.1-4.1,4.1H4.8c-2.3,0-4.1-1.8-4.1-4.1V29.8
	C0.7,27.5,2.5,25.6,4.8,25.6z"/>
<path class="st1" d="M92.8,54.9H5.5c-0.1,0-0.3,0-0.4,0c-1.3,0-2.6-0.7-3.2-1.9c-0.8-1.3-0.5-3-0.5-4.5V33.2c0-1.2,0-2.5,0-3.7
	c0-2,1.6-3.5,3.6-3.5h83c1.5,0,3,0,4.4,0c1.4,0,2.7,0.8,3.3,2.1c0.3,0.7,0.5,1.4,0.4,2.2v20c0,0.3,0,0.7,0,1
	C96,53.1,94.7,54.8,92.8,54.9c-0.2,0-0.7,0.1-0.8,0.4c-0.1,0.3,0.1,0.4,0.4,0.4c1.9,0,3.8-1,4.6-2.8c0.3-0.7,0.4-1.5,0.4-2.3V30.5
	c0-0.5,0-1.1-0.1-1.6c-0.4-1.8-1.9-3.2-3.7-3.5c-0.6-0.1-1.1-0.1-1.7-0.1H5.3c-2.1,0-4.1,1-4.9,3c-0.5,1.3-0.3,3-0.3,4.3v17.9
	c0,0.6,0,1.2,0.1,1.8c0.5,2.1,2.5,3.3,4.6,3.3h87.5c0.3,0,0.7-0.1,0.8-0.4C93.3,55,93,54.9,92.8,54.9z"/>
<path class="st1" d="M3.6,22V0.5h17.2v14.9h-7.8V22H3.6z M11.4,20.4v-6.6h7.8V2.2h-14v18.2H11.4z M11.4,10.4v-5h1.6v5L11.4,10.4z"/>
<path class="st1" d="M22.3,22v-8.3h3.1v-5h-3.1V0.5h15.6v8.3h-3.1v5h3.1V22H22.3z M36.3,20.4v-5h-3.1V7.1h3.1v-5H23.8v5H27v8.3h-3.1
	v5H36.3z"/>
<path class="st2" d="M39.5,22V0.5h17.2V22H39.5z M55.1,20.4v-8.3h-3.1v-1.7h3.1V2.2h-6.2v3.3h-1.6V2.2H41v8.3h3.1v1.7H41v8.3h6.2V17
	h1.6v3.3H55.1z"/>
<path class="st1" d="M58.2,22V0.5h17.2V22H58.2z M73.8,20.4v-5h-6.2v-1.7h6.2v-5h-6.2V7.1h6.2v-5h-14v18.2H73.8z"/>
<path class="st1" d="M76.9,22V0.5h9.4v13.2h7.8V22H76.9z M92.5,20.4v-5h-7.8V2.2h-6.2v18.2H92.5z"/>
<path class="st1" d="M2.5,75.1V58.9h13v16.2H2.5z M14.3,73.8v-8.7H9.6v-1.2h4.7v-3.7H3.7v8.7h4.7v1.2H3.7v3.7L14.3,73.8z"/>
<path class="st1" d="M19.1,75.1v-10h-2.4v-6.2h11.8v6.2h-2.4v10H19.1z M25,73.8v-10h2.4v-3.7h-9.5v3.7h2.4v10L25,73.8z"/>
<path class="st1" d="M29.7,75.1V58.9h13v16.2H29.7z M41.5,73.8V60.1h-4.7v8.7h-1.2v-8.7h-4.7v13.7L41.5,73.8z"/>
<path class="st2" d="M43.9,75.1V58.9h10.6v1.2h-9.5v13.7h9.5v1.2L43.9,75.1z M49.8,70.1v-6.2H51v6.2H49.8z M54.5,61.3v-1.2h1.2v1.2
	H54.5z M54.5,73.8v-1.2h1.2v1.2H54.5z M55.7,72.5V61.4h1.2v11.2L55.7,72.5z"/>
<path class="st1" d="M58.1,75.1V58.9h7.1v16.2H58.1z M64,73.8V60.1h-4.7v13.7H64z"/>
<path class="st1" d="M66.4,75.1V58.9h13v16.2H66.4z M78.2,73.8V60.1H67.5v13.7H78.2z M72.3,70.1v-6.2h1.2v6.2H72.3z"/>
<path class="st1" d="M80.6,75.1V58.9h13v16.2H80.6z M92.4,73.8v-8.7h-4.7v-1.2h4.7v-3.7H81.7v8.7h4.7v1.2h-4.7v3.7L92.4,73.8z"/>
<path class="st3" d="M30.9,43.7h2.9v1.8h-1.5v1.8h-5.9v-1.8H25v-8.9h1.5v-1.8h5.9v1.8h1.5v1.8h-2.9v-1.8H28v8.9h2.9V43.7z"/>
<path class="st3" d="M42.6,41.9h1.5v5.4h-2.9v-5.4h-2.9v5.4h-2.9V34.7h7.3v1.8h1.5v3.6h-1.5V41.9z M41.2,36.5h-2.9v3.6h2.9V36.5z"/>
<path class="st3" d="M48.5,43.7v3.6h-2.9V36.6H47v-1.8h5.9v1.8h1.5v10.7h-2.9v-3.6L48.5,43.7z M51.4,41.9v-5.4h-2.9v5.4H51.4z"/>
<path class="st3" d="M63.2,34.7v1.8h-4.4v3.6h4.4v1.8h-4.4v5.4h-2.9V34.7H63.2z"/>
<path class="st3" d="M73.4,34.7v1.8h-2.9v10.7h-2.9V36.5h-2.9v-1.8H73.4z"/>
</svg>
